<svg width="183" height="63" viewBox="0 0 183 63" fill="none" xmlns="http://www.w3.org/2000/svg">
<path d="M41.2712 0.569336H22.7838V46.2898H41.2712V0.569336Z" fill="#06B7FE"/>
<path d="M63.4156 62.079V0.569336H44.9282V51.2784L63.4156 62.079Z" fill="#146CF7"/>
<path d="M0.656738 62.079V0.569336H19.1683V51.2784L0.656738 62.079Z" fill="#146CF7"/>
<path d="M80.6608 35.173H78.9445C78.8104 35.173 78.6818 35.1213 78.587 35.0292C78.4922 34.9371 78.4389 34.8123 78.4389 34.682V25.9112L74.5193 31.9026C74.4757 31.9735 74.4138 32.0322 74.3399 32.073C74.2659 32.1138 74.1823 32.1352 74.0972 32.1352C74.0121 32.1352 73.9285 32.1138 73.8545 32.073C73.7805 32.0322 73.7187 31.9735 73.6751 31.9026L69.7462 25.9112V34.6865C69.7462 34.8168 69.6929 34.9416 69.5981 35.0337C69.5033 35.1258 69.3747 35.1776 69.2406 35.1776H67.5058C67.4391 35.1799 67.3726 35.1682 67.311 35.1433C67.2493 35.1185 67.1939 35.081 67.1486 35.0334C67.101 34.9883 67.0633 34.9344 67.0378 34.8747C67.0123 34.8151 66.9995 34.7511 67.0002 34.6865V21.7128C66.9984 21.6487 67.0108 21.5851 67.0364 21.526C67.0619 21.467 67.1002 21.414 67.1486 21.3704C67.1944 21.3237 67.2499 21.287 67.3116 21.2629C67.3732 21.2388 67.4394 21.2278 67.5058 21.2308H69.3612C69.4464 21.2259 69.5312 21.2439 69.6065 21.2829C69.6818 21.3218 69.7446 21.3802 69.7879 21.4515L74.0833 27.9924L78.3879 21.4515C78.4312 21.3802 78.494 21.3218 78.5693 21.2829C78.6446 21.2439 78.7295 21.2259 78.8146 21.2308H80.6701C80.7364 21.2278 80.8026 21.2388 80.8643 21.2629C80.9259 21.287 80.9815 21.3237 81.0272 21.3704C81.0756 21.414 81.1139 21.467 81.1395 21.526C81.1651 21.5851 81.1774 21.6487 81.1757 21.7128V34.6865C81.1763 34.7511 81.1635 34.8151 81.138 34.8747C81.1125 34.9344 81.0748 34.9883 81.0272 35.0334C80.9804 35.0813 80.9233 35.1187 80.86 35.1428C80.7967 35.167 80.7287 35.1773 80.6608 35.173Z" fill="#06B7FE"/>
<path d="M93.9043 35.1691H85.4389C85.3048 35.1691 85.1762 35.1174 85.0814 35.0253C84.9865 34.9332 84.9333 34.8084 84.9333 34.6781V21.7044C84.9315 21.6404 84.9439 21.5767 84.9695 21.5177C84.9951 21.4586 85.0333 21.4056 85.0817 21.362C85.1275 21.3153 85.183 21.2786 85.2447 21.2545C85.3063 21.2304 85.3725 21.2195 85.4389 21.2224H93.9043C93.9706 21.2195 94.0369 21.2304 94.0985 21.2545C94.1601 21.2786 94.2157 21.3153 94.2614 21.362C94.3098 21.4056 94.3481 21.4586 94.3737 21.5177C94.3993 21.5767 94.4116 21.6404 94.4099 21.7044V23.2045C94.4101 23.2697 94.3972 23.3342 94.3717 23.3945C94.3462 23.4548 94.3088 23.5096 94.2614 23.5559C94.215 23.6021 94.1595 23.6387 94.0981 23.6635C94.0367 23.6882 93.9707 23.7007 93.9043 23.7H87.7257V26.8533H93.3245C93.391 26.8527 93.457 26.865 93.5187 26.8895C93.5803 26.914 93.6363 26.9501 93.6833 26.9958C93.7304 27.0415 93.7676 27.0959 93.7928 27.1557C93.818 27.2156 93.8307 27.2797 93.8301 27.3444V28.867C93.8331 28.9314 93.8218 28.9957 93.797 29.0556C93.7722 29.1154 93.7344 29.1694 93.6863 29.2138C93.6404 29.262 93.5843 29.2999 93.5218 29.3248C93.4593 29.3497 93.3919 29.361 93.3245 29.358H87.7257V32.6645H93.9043C94.0376 32.6668 94.1648 32.7193 94.2592 32.8109C94.3535 32.9025 94.4075 33.026 94.4099 33.1555V34.6781C94.4106 34.7427 94.3978 34.8067 94.3723 34.8663C94.3467 34.9259 94.309 34.9799 94.2614 35.025C94.2161 35.0726 94.1607 35.1101 94.0991 35.135C94.0374 35.1598 93.971 35.1715 93.9043 35.1691V35.1691Z" fill="#06B7FE"/>
<path d="M102.724 35.1683H98.0855C98.0188 35.1707 97.9523 35.159 97.8907 35.1341C97.829 35.1092 97.7737 35.0717 97.7283 35.0241C97.6807 34.9791 97.643 34.9251 97.6175 34.8655C97.592 34.8059 97.5792 34.7418 97.5799 34.6773V21.7035C97.5781 21.6395 97.5905 21.5758 97.6161 21.5168C97.6417 21.4578 97.6799 21.4047 97.7283 21.3612C97.7751 21.3158 97.8309 21.28 97.8922 21.256C97.9536 21.232 98.0193 21.2203 98.0855 21.2215H102.724C104.907 21.2215 106.634 21.9333 107.905 23.3568C108.49 24.0163 108.935 24.7818 109.213 25.6092C109.757 27.2834 109.757 29.0794 109.213 30.7536C108.94 31.583 108.495 32.3495 107.905 33.006C106.637 34.4475 104.91 35.1683 102.724 35.1683ZM102.724 32.6637C103.342 32.6945 103.958 32.5762 104.518 32.3191C105.077 32.062 105.562 31.6743 105.929 31.1906C106.566 30.3167 106.892 29.2649 106.857 28.1949C106.86 27.6642 106.79 27.1354 106.648 26.6227C106.511 26.0754 106.248 25.565 105.881 25.1292C105.513 24.6934 105.049 24.3433 104.524 24.1046C103.959 23.8556 103.344 23.731 102.724 23.7397H100.344V32.6637H102.724Z" fill="#06B7FE"/>
<path d="M119.295 35.3973C118.314 35.4083 117.342 35.2244 116.437 34.8567C115.537 34.4824 114.742 33.9048 114.118 33.1719C113.533 32.4834 113.092 31.6908 112.819 30.8385C112.277 29.1181 112.277 27.2792 112.819 25.5589C113.091 24.7033 113.532 23.9076 114.118 23.2164C114.744 22.4874 115.539 21.9131 116.437 21.5406C118.27 20.8198 120.32 20.8198 122.152 21.5406C123.051 21.9138 123.845 22.488 124.471 23.2164C125.059 23.9064 125.501 24.7025 125.77 25.5589C126.313 27.2792 126.313 29.1181 125.77 30.8385C125.499 31.6916 125.058 32.4846 124.471 33.1719C123.847 33.9043 123.052 34.4818 122.152 34.8567C121.248 35.2244 120.275 35.4083 119.295 35.3973V35.3973ZM119.295 32.9377C119.919 32.9635 120.54 32.8338 121.099 32.561C121.658 32.2882 122.135 31.8814 122.486 31.379C123.09 30.4202 123.41 29.3181 123.41 28.1942C123.41 27.0702 123.09 25.9681 122.486 25.0093C122.114 24.5281 121.632 24.1376 121.078 23.8686C120.523 23.5997 119.912 23.4596 119.293 23.4596C118.673 23.4596 118.062 23.5997 117.507 23.8686C116.953 24.1376 116.471 24.5281 116.099 25.0093C115.495 25.9681 115.175 27.0702 115.175 28.1942C115.175 29.3181 115.495 30.4202 116.099 31.379C116.451 31.8814 116.929 32.2882 117.489 32.561C118.048 32.8337 118.67 32.9634 119.295 32.9377V32.9377Z" fill="#06B7FE"/>
<path d="M142.486 35.173H140.761C140.694 35.1754 140.628 35.1637 140.566 35.1389C140.504 35.114 140.449 35.0765 140.404 35.0289C140.356 34.9838 140.318 34.9298 140.293 34.8702C140.267 34.8106 140.255 34.7466 140.255 34.682V25.9112L136.336 31.9026C136.294 31.9757 136.233 32.0364 136.159 32.0777C136.084 32.1191 135.999 32.1395 135.913 32.1368C135.828 32.1387 135.745 32.1178 135.671 32.0765C135.597 32.0352 135.537 31.975 135.496 31.9026L131.595 25.9112V34.6865C131.596 34.7511 131.583 34.8151 131.557 34.8747C131.532 34.9344 131.494 34.9883 131.447 35.0334C131.401 35.081 131.346 35.1185 131.284 35.1433C131.223 35.1682 131.156 35.1799 131.089 35.1776H129.355C129.22 35.1764 129.092 35.1244 128.997 35.0327C128.901 34.941 128.847 34.8168 128.844 34.6865V21.7128C128.843 21.6484 128.856 21.5845 128.883 21.5255C128.909 21.4664 128.948 21.4135 128.997 21.3704C129.043 21.3237 129.099 21.287 129.16 21.2629C129.222 21.2388 129.288 21.2278 129.355 21.2308H131.21C131.295 21.2259 131.38 21.2439 131.455 21.2829C131.531 21.3218 131.593 21.3802 131.637 21.4515L135.937 27.9924L140.241 21.4515C140.285 21.3802 140.347 21.3218 140.423 21.2829C140.498 21.2439 140.583 21.2259 140.668 21.2308H142.523C142.59 21.2278 142.656 21.2388 142.718 21.2629C142.779 21.287 142.835 21.3237 142.881 21.3704C142.929 21.414 142.967 21.467 142.993 21.526C143.018 21.5851 143.031 21.6487 143.029 21.7128V34.6865C143.029 34.8168 142.976 34.9416 142.881 35.0337C142.786 35.1258 142.658 35.1776 142.523 35.1776L142.486 35.173Z" fill="#06B7FE"/>
<path d="M155.751 35.1683H147.3C147.233 35.1707 147.167 35.159 147.105 35.1341C147.043 35.1092 146.988 35.0717 146.943 35.0241C146.895 34.9791 146.857 34.9251 146.832 34.8655C146.806 34.8059 146.793 34.7418 146.794 34.6773V21.7035C146.792 21.6395 146.805 21.5758 146.83 21.5168C146.856 21.4578 146.894 21.4047 146.943 21.3612C146.989 21.3158 147.045 21.28 147.106 21.256C147.168 21.232 147.234 21.2203 147.3 21.2215H155.751C155.818 21.2204 155.884 21.2322 155.946 21.2562C156.009 21.2801 156.065 21.3158 156.113 21.3612C156.161 21.4047 156.2 21.4578 156.225 21.5168C156.251 21.5758 156.263 21.6395 156.261 21.7035V23.2036C156.262 23.2689 156.249 23.3336 156.224 23.394C156.198 23.4544 156.161 23.5092 156.113 23.5554C156.066 23.6015 156.009 23.638 155.947 23.6627C155.885 23.6873 155.818 23.6998 155.751 23.6992H149.573V26.8525H155.167C155.234 26.8495 155.302 26.8608 155.364 26.8857C155.427 26.9106 155.483 26.9485 155.529 26.9967C155.575 27.0421 155.612 27.0962 155.637 27.1558C155.662 27.2154 155.674 27.2793 155.672 27.3435V28.8661C155.675 28.9306 155.664 28.9949 155.639 29.0547C155.614 29.1146 155.577 29.1685 155.529 29.213C155.483 29.2612 155.427 29.299 155.364 29.3239C155.302 29.3488 155.234 29.3602 155.167 29.3571H149.573V32.6637H155.751C155.819 32.6632 155.886 32.6762 155.948 32.7017C156.01 32.7273 156.066 32.7649 156.113 32.8123C156.161 32.8558 156.2 32.9089 156.225 32.9679C156.251 33.027 156.263 33.0906 156.261 33.1547V34.6773C156.261 34.7421 156.248 34.8064 156.223 34.8662C156.197 34.9261 156.159 34.9804 156.112 35.0261C156.064 35.0717 156.008 35.1078 155.946 35.1322C155.884 35.1566 155.818 35.1689 155.751 35.1683V35.1683Z" fill="#06B7FE"/>
<path d="M170.167 35.1694H168.409C168.323 35.1743 168.239 35.1563 168.163 35.1173C168.088 35.0784 168.025 35.0201 167.982 34.9487L162.17 26.0969V34.6784C162.17 34.8087 162.116 34.9336 162.022 35.0256C161.927 35.1177 161.798 35.1694 161.664 35.1694H159.929C159.863 35.1718 159.796 35.1601 159.734 35.1353C159.673 35.1104 159.617 35.0729 159.572 35.0253C159.524 34.9802 159.487 34.9263 159.461 34.8666C159.436 34.807 159.423 34.743 159.424 34.6784V21.7047C159.422 21.6407 159.434 21.577 159.46 21.518C159.485 21.4589 159.524 21.4059 159.572 21.3624C159.618 21.3156 159.673 21.2789 159.735 21.2548C159.797 21.2307 159.863 21.2198 159.929 21.2227H161.673C161.758 21.2178 161.843 21.2359 161.919 21.2748C161.994 21.3137 162.057 21.3721 162.1 21.4434L167.926 30.2953V21.7047C167.924 21.6407 167.937 21.577 167.962 21.518C167.988 21.4589 168.026 21.4059 168.075 21.3624C168.12 21.3156 168.176 21.2789 168.238 21.2548C168.299 21.2307 168.365 21.2198 168.432 21.2227H170.167C170.233 21.2198 170.299 21.2307 170.361 21.2548C170.422 21.2789 170.478 21.3156 170.524 21.3624C170.572 21.4059 170.61 21.4589 170.636 21.518C170.662 21.577 170.674 21.6407 170.672 21.7047V34.6784C170.673 34.743 170.66 34.807 170.635 34.8666C170.609 34.9263 170.571 34.9802 170.524 35.0253C170.478 35.0729 170.423 35.1104 170.361 35.1353C170.3 35.1601 170.233 35.1718 170.167 35.1694Z" fill="#06B7FE"/>
<path d="M178.853 35.1691H177.076C177.01 35.1708 176.945 35.1589 176.884 35.134C176.823 35.1091 176.769 35.072 176.724 35.025C176.631 34.9323 176.579 34.8076 176.58 34.6781V23.718H173.44C173.373 23.718 173.307 23.7052 173.245 23.6802C173.184 23.6553 173.128 23.6187 173.081 23.5726C173.034 23.5265 172.996 23.4719 172.971 23.4118C172.946 23.3517 172.934 23.2874 172.934 23.2225V21.7044C172.932 21.6404 172.945 21.5767 172.97 21.5177C172.996 21.4586 173.034 21.4056 173.083 21.362C173.128 21.3153 173.184 21.2786 173.246 21.2545C173.307 21.2304 173.373 21.2195 173.44 21.2224H182.494C182.561 21.2195 182.627 21.2304 182.688 21.2545C182.75 21.2786 182.806 21.3153 182.851 21.362C182.9 21.4056 182.938 21.4586 182.964 21.5177C182.989 21.5767 183.002 21.6404 183 21.7044V23.2045C183 23.2696 182.987 23.3342 182.962 23.3945C182.936 23.4548 182.899 23.5096 182.851 23.5559C182.805 23.6021 182.749 23.6387 182.688 23.6635C182.627 23.6882 182.561 23.7007 182.494 23.7H179.349V34.6601C179.352 34.7245 179.341 34.7889 179.316 34.8487C179.291 34.9086 179.254 34.9625 179.205 35.007C179.162 35.0572 179.109 35.0978 179.048 35.1258C178.987 35.1538 178.92 35.1686 178.853 35.1691V35.1691Z" fill="#06B7FE"/>
</svg>
